<svg xmlns="http://www.w3.org/2000/svg" viewBox="10 17 80 26" fill="none">
  <path d="M78.5405 26.6052V41.5319H83.1731V34.0525C83.1731 33.3035 83.2492 32.608 83.4015 31.966C83.5537 31.324 83.8038 30.7675 84.1518 30.2968C84.5215 29.8045 85 29.4194 85.5872 29.1411C86.1745 28.8629 86.8922 28.7238 87.7404 28.7238C88.0231 28.7238 88.3167 28.7452 88.6213 28.7881C88.9257 28.8094 89.1867 28.8416 89.4042 28.8843V24.6471C89.0344 24.5401 88.6973 24.4866 88.3928 24.4866C87.8057 24.4866 87.2401 24.5722 86.6964 24.7434C86.1527 24.9146 85.6416 25.1607 85.1631 25.4817C84.6846 25.7813 84.2605 26.1558 83.8908 26.6052C83.5211 27.0332 83.2275 27.504 83.01 28.0177H82.9447V24.936L78.5405 26.6052Z" fill="#202226"/>
  <path d="M11.8798 26.9689V29.0555V41.0932H17.0017V31.2062H26.4298V41.0932H31.5518V19.9924L26.4298 21.9292V26.9689H17.0017V24.4972L11.8798 26.9689Z" fill="#202226"/>
  <path d="M40.3345 21.9291V18.9973L38.0182 18.1733L35.7019 18.9973V21.9291H40.3345ZM35.7019 24.4971V41.0931H40.3345V24.4971H35.7019Z" fill="#202226"/>
  <path d="M44.4062 20.5488V41.0931H49.0388V35.3792L50.8331 33.6779L55.4657 41.0931H61.0769L53.9976 30.5963L58.7272 26.0594L54.8124 24.5621L49.0388 30.4678V22.3679L44.4062 20.5488Z" fill="#202226"/>
  <path d="M68.8014 23.3807L63.6582 18.1733L68.8014 19.7513L73.9567 18.1733L68.8014 23.3807Z" fill="#FFC700"/>
  <path fill-rule="evenodd" clip-rule="evenodd" d="M76.122 34.6937H65.1931C65.2517 36.0146 65.5935 36.9719 66.2186 37.5654C66.8436 38.1589 67.7422 38.4556 68.9142 38.4556C69.7541 38.4556 70.4768 38.2546 71.0824 37.8526C71.6879 37.4314 72.0591 36.991 72.1958 36.5315H75.8583C75.2723 38.312 74.3738 39.5851 73.1627 40.351C71.9516 41.1168 70.4866 41.4997 68.7676 41.4997C67.5761 41.4997 66.5018 41.3178 65.5446 40.9541C64.5875 40.5712 63.7769 40.0351 63.1127 39.3459C62.4486 38.6567 61.931 37.8334 61.5599 36.8762C61.2083 35.9189 61.0325 34.866 61.0325 33.7173C61.0325 32.6069 61.218 31.573 61.5891 30.6158C61.9603 29.6585 62.4877 28.8353 63.1714 28.1461C63.855 27.4378 64.6657 26.8826 65.6033 26.4805C66.5604 26.0785 67.6152 25.8774 68.7676 25.8774C70.0569 25.8774 71.1801 26.1263 72.1372 26.6241C73.0944 27.1027 73.8757 27.7536 74.4812 28.5769C75.1063 29.4001 75.5556 30.3382 75.829 31.3912C76.1025 32.4441 76.2001 33.545 76.122 34.6937ZM65.2313 32.2474L68.803 28.5882L72.383 32.2474L68.803 31.1385L65.2313 32.2474Z" fill="#202226"/>
</svg>
